<?xml version="1.0" encoding="UTF-8" standalone="no"?>
<!-- Created with Serif DrawPlus 11, 0, 0, 18 (Mar 20, 15:09:53) (http://www.serif.com) -->
<svg version="1.1" xmlns="http://www.w3.org/2000/svg" xmlns:xlink="http://www.w3.org/1999/xlink" width="348.955" height="205.899">
	<path id="dp_path001" transform="matrix(1,0,0,1,-318.417,-66.5253)" fill="white" fill-rule="evenodd" d="M 546,111 C 590.003,100.92 636.559,130.465 645.316,161.696 C 655.752,162.303 671.211,182.801 666.5,201.501 C 664.281,210.305 656.053,213.904 645.427,214.741 C 643.561,214.888 641.739,214.936 639.953,214.904 C 639.969,215.02 639.985,215.136 640.001,215.251 C 642.963,237.376 608.792,232.789 596.751,244.501 C 578.841,261.921 542.436,281.681 524.9,267.7 C 519.204,263.159 519.656,254.803 527.095,249.556 C 515.399,248.515 502.472,239.907 501.5,227.751 C 501.1,222.767 501.245,218.201 501.876,214.027 C 501.565,213.896 501.255,213.764 500.945,213.635 C 482.539,232.352 423.909,228.561 409.34,232.2 C 402.393,233.935 388.549,260.888 373.02,245.58 C 365.844,238.507 363.565,225.713 368.54,221.9 C 373.911,217.784 379.177,213.973 391.26,215.82 C 393.04,216.092 395.596,215.548 398.744,214.429 C 381.432,213.997 366.539,212.849 360.555,212.992 C 353.396,213.161 333.981,236.425 322.185,218.087 C 316.733,209.612 317.315,196.631 323.004,194 C 329.147,191.161 335.12,188.597 346.504,193.047 C 351.757,195.1 370.4,190.016 391.589,184.565 C 386.36,180.557 381.428,175.704 377.251,170.152 C 363.487,151.86 359.385,127.548 359.74,122.581 C 359.849,121.045 369.216,120.561 377.677,122.424 C 385.537,124.155 392.524,128.22 392.928,127.644 C 409.764,103.625 440.107,100.407 440.1,99.7 C 439.993,88.356 442.533,65.8027 444.125,66.5253 C 452.768,70.4493 473.853,93.6987 483.376,118.525 C 485.32,123.593 486.892,128.604 487.987,133.435 C 505.115,123.565 526.256,115.523 546,111 Z M 422.739,159.952 C 422.624,159.664 422.403,159.432 421.983,159.469 C 420.215,159.875 419.636,161.501 419.189,162.072 C 416.46,165.56 413.603,164.516 410.416,165.396 C 409.903,165.537 409.096,165.749 408.932,166.375 C 408.723,167.515 411.008,168.504 412.471,168.467 C 415.979,168.377 419.499,168.291 422.044,163.583 C 422.476,162.783 422.781,161.909 422.849,160.877 C 422.855,160.78 422.884,160.321 422.739,159.952 Z M 440.071,151.667 C 438.608,151.704 436.323,150.715 436.532,149.575 C 436.696,148.949 437.503,148.737 438.016,148.596 C 441.203,147.716 444.06,148.76 446.789,145.272 C 447.236,144.701 447.815,143.075 449.583,142.669 C 450.545,142.587 450.46,143.907 450.449,144.077 C 450.381,145.109 450.076,145.983 449.644,146.783 C 447.099,151.491 443.579,151.577 440.071,151.667 Z "/>
</svg>