<?xml version="1.0" encoding="UTF-8" standalone="no"?>
<!-- Created with Serif DrawPlus 11, 0, 0, 18 (Mar 20, 15:09:53) (http://www.serif.com) -->
<svg version="1.1" xmlns="http://www.w3.org/2000/svg" xmlns:xlink="http://www.w3.org/1999/xlink" width="242.493" height="70.188">
	<g id="dp_group001" transform="matrix(1,0,0,1,313.001,-450.353)">
		<g id="dp_group002">
			<path id="dp_path003" fill="white" fill-rule="evenodd" d="M -244.885,450.656 C -244.441,450.311 -243.841,450.139 -243.299,450.353 C -242.795,450.581 -242.648,451.152 -242.404,451.6 C -241.561,453.197 -240.979,454.919 -240.116,456.509 C -238.936,459.403 -238.436,462.504 -237.605,465.504 C -237.54,465.904 -237.139,466.067 -236.844,466.277 C -235.867,466.893 -234.995,467.665 -234.236,468.535 C -231.915,470.751 -230.224,473.687 -229.767,476.88 C -229.28,478.897 -229.907,480.967 -229.612,482.992 C -229.088,484.381 -228.94,485.867 -228.525,487.287 C -228.171,489.511 -227.577,491.728 -227.729,494 C -227.831,495.437 -227.895,496.896 -228.245,498.303 C -229.149,500.769 -230.201,503.252 -231.993,505.22 C -233.896,507.515 -236.431,509.144 -238.828,510.869 C -239.433,511.332 -240.152,511.616 -240.793,512.024 C -242.069,512.831 -243.307,513.743 -244.739,514.268 C -246.571,514.981 -248.351,515.833 -250.223,516.445 C -251.992,516.973 -253.751,517.549 -255.48,518.193 C -258.449,519.017 -261.451,519.88 -264.555,519.941 C -266.117,520.137 -267.667,520.464 -269.245,520.524 C -273.001,520.591 -276.813,520.723 -280.496,519.856 C -281.929,519.408 -283.347,518.916 -284.793,518.515 C -287.401,517.411 -289.889,515.94 -291.909,513.939 C -293.245,512.809 -294.508,511.597 -295.689,510.309 C -296.292,509.693 -296.557,508.859 -296.96,508.117 C -297.451,508.221 -297.971,508.465 -298.455,508.192 C -299.048,507.923 -299.767,507.741 -300.129,507.151 C -301.351,505.343 -302.276,503.364 -303.115,501.357 C -303.759,500.071 -304.373,498.759 -304.731,497.357 C -305.247,495.207 -305.812,493.021 -305.669,490.791 C -305.585,490.192 -305.399,489.613 -305.36,489.007 C -306.021,487.419 -307.516,486.06 -308.199,484.48 C -309.656,481.303 -311.036,478.08 -312.081,474.743 C -312.541,473.169 -312.965,471.601 -313.001,469.947 C -312.824,469.324 -312.633,468.503 -312.004,468.135 C -311.339,467.916 -310.62,468.095 -309.944,468.192 C -308.373,468.535 -306.761,468.624 -305.184,468.921 C -303.695,469.191 -302.289,469.777 -300.82,470.125 C -300.263,469.255 -299.864,468.288 -299.203,467.483 C -298.257,466.167 -297.221,464.921 -296.213,463.652 C -295.327,462.517 -294.227,461.812 -293.207,460.811 C -292.669,460.307 -292.06,459.683 -291.455,459.249 C -290.392,458.497 -289.477,457.528 -288.276,456.981 C -287.313,456.552 -286.493,455.864 -285.521,455.451 C -284.145,454.908 -283.103,453.82 -281.865,453.043 C -280.773,452.045 -279.389,451.38 -277.94,451.084 C -276.965,451.028 -275.973,450.961 -275.007,451.096 C -273.736,451.273 -272.911,451.657 -271.855,451.904 C -271.084,451.845 -270.329,451.672 -269.537,451.679 C -268.072,451.688 -266.843,451.759 -265.527,452.057 C -263.929,452.304 -262.409,452.869 -260.844,453.24 C -259.273,453.572 -257.759,454.233 -256.329,454.981 C -255.429,455.451 -254.541,455.835 -253.695,456.4 C -253.075,456.799 -252.529,457.3 -251.888,457.669 C -251.265,456.812 -250.428,456.144 -249.775,455.312 C -249.2,454.588 -248.411,454.076 -247.824,453.364 C -246.963,452.344 -245.948,451.464 -244.885,450.656 Z "/>
			<path id="dp_path004" fill="white" fill-rule="evenodd" d="M -245.307,454.956 C -244.952,454.5 -244.517,454.115 -244.073,453.748 C -243.7,454.477 -243.323,455.215 -243.093,456.005 C -242.748,457.317 -242.279,458.592 -241.92,459.899 C -241.325,461.555 -240.999,463.285 -240.627,465.001 C -241.443,464.82 -242.291,464.796 -243.095,464.567 C -243.967,463.815 -244.736,462.952 -245.476,462.073 C -246.544,461.056 -247.655,460.071 -248.936,459.327 C -247.8,457.809 -246.476,456.445 -245.307,454.956 Z "/>
			<path id="dp_path005" fill="white" fill-rule="evenodd" d="M -309.693,471.879 C -308.545,471.532 -307.576,472.389 -306.459,472.451 C -304.852,472.623 -303.337,473.233 -301.743,473.467 C -299.031,473.863 -296.753,475.476 -294.311,476.589 C -293.041,477.084 -291.845,477.756 -290.523,478.111 C -291.695,479.501 -292.791,480.951 -293.856,482.424 C -294.612,483.468 -295.252,484.644 -295.885,485.817 C -296.376,486.721 -296.749,487.539 -297.308,488.324 C -298.031,489.285 -298.612,490.339 -299.296,491.323 C -300.389,490.477 -301.119,489.304 -301.957,488.236 C -304.333,485.721 -305.233,482.301 -306.871,479.335 C -307.897,477.585 -308.165,475.528 -309.033,473.708 C -309.316,473.12 -309.491,472.493 -309.693,471.879 Z "/>
			<path id="dp_path006" fill="#839edb" fill-rule="evenodd" d="M -249.673,467.069 C -247.452,466.864 -245.251,467.325 -243.04,467.44 C -241.953,467.487 -240.988,467.812 -239.899,468.181 C -238.12,468.787 -236.596,469.904 -235.435,471.321 C -233.812,473.657 -232.436,476.309 -232.339,479.204 C -233.081,478.679 -233.819,478.121 -234.668,477.775 C -235.579,477.393 -236.409,476.836 -237.353,476.532 C -239.749,475.781 -242.265,475.523 -244.768,475.436 C -246.48,475.403 -248.204,475.168 -249.904,475.443 C -251.193,475.647 -252.509,475.503 -253.788,475.763 C -255.423,475.889 -257.02,476.259 -258.644,476.444 C -262.013,477.112 -265.269,478.221 -268.607,479.012 C -271.957,479.855 -275.063,481.403 -278.293,482.565 C -279.688,483.272 -281.191,483.768 -282.515,484.605 C -283.025,484.919 -283.588,485.121 -284.144,485.337 C -283.273,483.869 -282.451,482.368 -281.439,480.985 C -279.929,478.653 -277.796,476.84 -275.911,474.827 C -275.164,474.011 -274.287,473.315 -273.365,472.693 C -271.573,471.587 -269.748,470.501 -267.779,469.724 C -266.048,469.032 -264.185,468.805 -262.364,468.46 C -260.015,468.115 -257.689,467.575 -255.309,467.476 C -253.435,467.272 -251.552,467.219 -249.673,467.069 Z M -266.648,454.768 C -265.004,454.684 -263.471,455.364 -261.957,455.904 C -259.961,456.547 -257.991,457.301 -256.135,458.287 C -254.373,459.389 -252.541,460.387 -250.811,461.533 C -249.861,462.336 -248.735,462.907 -247.845,463.781 C -250.659,463.936 -253.481,463.86 -256.281,464.148 C -257.052,463.144 -257.995,462.297 -258.892,461.415 C -260.223,459.885 -261.695,458.471 -263.327,457.268 C -264.337,456.308 -265.593,455.668 -266.648,454.768 Z M -278.959,455.055 C -278.051,454.565 -277.004,454.421 -275.993,454.289 C -275.247,454.188 -274.523,454.473 -273.785,454.561 C -271.881,454.779 -270.036,455.476 -268.431,456.509 C -266.659,457.863 -264.697,458.971 -263.059,460.497 C -261.705,461.785 -260.311,463.04 -259.117,464.485 C -260.821,464.5 -262.48,464.892 -264.149,465.195 C -265.028,465.368 -265.892,465.695 -266.796,465.688 C -267.664,464.691 -268.548,463.708 -269.304,462.621 C -271.04,460.967 -272.76,459.237 -274.869,458.044 C -275.993,457.413 -277.267,457.092 -278.54,456.952 C -278.912,456.897 -279.224,457.081 -279.472,457.34 C -278.073,457.932 -276.58,458.364 -275.373,459.321 C -274.132,460.347 -272.871,461.391 -271.943,462.721 C -271.025,464.004 -269.953,465.177 -269.139,466.535 C -273.184,468.348 -276.576,471.273 -279.757,474.299 C -281.227,475.633 -282.568,477.131 -283.616,478.819 C -284.404,479.928 -285.209,481.029 -285.833,482.241 C -286.471,483.54 -287.365,484.704 -287.892,486.061 C -288.393,487.341 -289.332,488.372 -290.081,489.512 C -290.519,490.221 -291.181,490.744 -291.732,491.361 C -293.295,493.072 -294.86,494.824 -295.94,496.888 C -297.175,498.971 -298.061,501.239 -298.731,503.561 C -299.528,501.416 -300.577,499.383 -301.469,497.283 C -302.019,495.768 -302.073,494.137 -302.177,492.549 C -301.469,492.956 -300.809,493.465 -300.043,493.753 C -299.259,493.915 -298.341,493.949 -297.717,493.363 C -296.747,492.536 -296.264,491.308 -295.516,490.301 C -294.537,489.027 -293.805,487.595 -292.96,486.236 C -291.995,484.675 -290.984,483.145 -290.005,481.593 C -288.868,480.136 -287.524,478.819 -286.599,477.207 C -286.621,477.123 -286.647,477.037 -286.672,476.953 C -287.485,476.292 -288.456,475.856 -289.353,475.324 C -290.837,474.456 -292.333,473.611 -293.841,472.785 C -294.985,472.26 -296.175,471.84 -297.372,471.451 C -296.863,470.609 -296.365,469.763 -295.879,468.909 C -293.54,465.217 -290.173,462.24 -286.387,460.076 C -284.987,459.187 -283.573,458.317 -282.125,457.513 C -281.049,456.723 -280.064,455.808 -278.959,455.055 Z "/>
			<path id="dp_path007" fill="#839edb" fill-rule="evenodd" d="M -254.871,488.443 C -254.811,489.592 -254.691,492.101 -252.773,491.979 C -251.533,491.901 -250.452,492.477 -249.572,490.888 C -248.665,489.249 -248.939,485.16 -250.972,484.404 C -252.291,483.912 -253.591,484.171 -254.239,485.219 C -254.701,485.967 -254.943,487.065 -254.871,488.443 Z M -273.141,492.297 C -273.081,493.444 -272.961,495.956 -271.043,495.833 C -269.804,495.755 -268.581,496.103 -267.703,494.515 C -266.796,492.875 -267.429,488.94 -269.464,488.184 C -270.784,487.692 -271.861,488.025 -272.511,489.073 C -272.972,489.821 -273.213,490.92 -273.141,492.297 Z "/>
		</g>
		<g id="dp_group008">
			<path id="dp_path009" fill="white" fill-rule="evenodd" stroke="none" stroke-width="1.73333" d="M -183.649,502.24 L -191.08,477.988 L -191.271,477.988 C -191.004,482.923 -190.871,486.215 -190.871,487.864 L -190.871,502.24 L -196.724,502.24 L -196.724,471.331 L -187.808,471.331 L -180.501,494.969 L -180.375,494.969 L -172.624,471.331 L -163.708,471.331 L -163.708,502.24 L -169.819,502.24 L -169.819,487.611 C -169.819,486.919 -169.808,486.121 -169.785,485.22 C -169.764,484.319 -169.667,481.924 -169.501,478.032 L -169.688,478.032 L -177.648,502.24 Z "/>
			<path id="dp_path010" fill="white" fill-rule="evenodd" stroke="none" stroke-width="1.73333" d="M -146.588,482.764 C -147.955,482.764 -149.027,483.196 -149.801,484.063 C -150.577,484.924 -151.02,486.151 -151.132,487.741 L -142.087,487.741 C -142.116,486.151 -142.531,484.924 -143.335,484.063 C -144.139,483.196 -145.225,482.764 -146.588,482.764 Z M -145.679,502.672 C -149.484,502.672 -152.46,501.623 -154.599,499.524 C -156.741,497.425 -157.812,494.453 -157.812,490.608 C -157.812,486.648 -156.824,483.589 -154.844,481.425 C -152.864,479.265 -150.127,478.183 -146.632,478.183 C -143.292,478.183 -140.695,479.132 -138.833,481.032 C -136.973,482.933 -136.045,485.559 -136.045,488.909 L -136.045,492.033 L -151.28,492.033 C -151.212,493.869 -150.667,495.3 -149.653,496.328 C -148.64,497.36 -147.216,497.876 -145.384,497.876 C -143.963,497.876 -142.617,497.728 -141.348,497.432 C -140.081,497.136 -138.755,496.66 -137.376,496.011 L -137.376,501.003 C -138.501,501.565 -139.707,501.987 -140.991,502.261 C -142.271,502.536 -143.836,502.672 -145.679,502.672 Z "/>
			<path id="dp_path011" fill="white" fill-rule="evenodd" stroke="none" stroke-width="1.73333" d="M -125.617,490.384 C -125.617,492.721 -125.232,494.489 -124.464,495.683 C -123.696,496.88 -122.448,497.479 -120.713,497.479 C -118.992,497.479 -117.759,496.884 -117.005,495.693 C -116.252,494.507 -115.873,492.736 -115.873,490.384 C -115.873,488.051 -116.255,486.299 -117.016,485.129 C -117.777,483.961 -119.021,483.377 -120.756,483.377 C -122.473,483.377 -123.713,483.957 -124.475,485.119 C -125.236,486.28 -125.617,488.037 -125.617,490.384 Z M -109.28,490.396 C -109.28,494.24 -110.293,497.248 -112.324,499.42 C -114.351,501.587 -117.179,502.672 -120.8,502.672 C -123.068,502.672 -125.067,502.175 -126.801,501.183 C -128.532,500.191 -129.863,498.763 -130.793,496.905 C -131.724,495.044 -132.189,492.877 -132.189,490.396 C -132.189,486.536 -131.183,483.536 -129.167,481.393 C -127.151,479.255 -124.32,478.183 -120.669,478.183 C -118.401,478.183 -116.403,478.677 -114.668,479.663 C -112.937,480.647 -111.607,482.064 -110.676,483.911 C -109.745,485.753 -109.28,487.917 -109.28,490.396 Z "/>
			<path id="dp_path012" fill="white" fill-rule="evenodd" stroke="none" stroke-width="1.73333" d="M -85.4813,502.24 L -87.2987,493.977 L -89.748,483.539 L -89.896,483.539 L -94.2053,502.24 L -101.137,502.24 L -107.857,478.616 L -101.433,478.616 L -98.7067,489.076 C -98.2707,490.947 -97.8267,493.533 -97.376,496.829 L -97.2493,496.829 C -97.192,495.759 -96.9467,494.064 -96.5107,491.737 L -96.1707,489.941 L -93.2573,478.616 L -86.156,478.616 L -83.3893,489.941 C -83.332,490.251 -83.2453,490.709 -83.1253,491.315 C -83.0027,491.921 -82.888,492.567 -82.776,493.248 C -82.664,493.933 -82.56,494.601 -82.4693,495.257 C -82.3787,495.911 -82.3253,496.436 -82.3107,496.829 L -82.184,496.829 C -82.0587,495.816 -81.8307,494.424 -81.5093,492.657 C -81.1853,490.889 -80.9507,489.696 -80.8107,489.076 L -77.9787,478.616 L -71.66,478.616 L -78.4653,502.24 Z "/>
		</g>
	</g>
</svg>