<?xml version="1.0" encoding="UTF-8" standalone="no"?>
<!-- Created with Serif DrawPlus 11, 0, 0, 18 (Mar 20, 15:09:53) (http://www.serif.com) -->
<svg version="1.1" xmlns="http://www.w3.org/2000/svg" xmlns:xlink="http://www.w3.org/1999/xlink" width="377" height="375">
	<g id="Layer_1">
		<path id="dp_path001" fill="#007cc3" fill-rule="evenodd" stroke="none" stroke-width="1.33333" d="M 0.666667,0.666667 L 295.067,0.666667 L 375.867,91.8667 L 375.867,374.267 L 0.666667,374.267 Z "/>
		<g id="dp_group001">
			<path id="dp_path002" fill="black" fill-rule="evenodd" stroke="black" stroke-width="6.66667" d="M 101.831,231.173 C 101.831,226.385 100.028,222.737 96.4227,220.203 C 92.8173,217.667 87.564,216.4 80.692,216.4 L 80.692,196.683 C 87.62,196.683 92.888,195.472 96.4653,193.049 C 100.041,190.627 101.831,187.163 101.831,182.641 L 101.831,181.98 L 101.831,155.729 C 101.831,147.307 104.492,141.377 109.829,137.928 C 115.168,134.491 124.547,132.773 137.983,132.773 L 137.983,151.335 C 132.532,151.504 128.772,152.545 126.701,154.475 C 124.645,156.405 123.617,159.236 123.617,162.981 L 123.617,187.669 C 123.28,198.021 116.843,204.133 104.309,206.007 L 104.309,206.992 C 117.181,208.921 123.617,214.752 123.617,224.497 L 123.617,225.244 L 123.617,249.932 C 123.617,253.679 124.632,256.509 126.673,258.439 C 128.701,260.368 132.476,261.411 137.983,261.579 L 137.983,280.225 C 124.547,280.225 115.168,278.507 109.829,275.071 C 104.492,271.62 101.831,265.663 101.831,257.185 Z "/>
			<path id="dp_path003" fill="black" fill-rule="evenodd" stroke="black" stroke-width="6.66667" d="M 275.168,257.185 C 275.168,263.353 274.041,268.001 271.788,271.141 C 269.535,274.283 265.803,276.577 260.605,278.043 C 255.409,279.493 248.212,280.225 239.016,280.225 L 239.016,261.579 C 244.467,261.467 248.227,260.48 250.297,258.608 C 252.353,256.735 253.381,253.847 253.381,249.932 L 253.381,225.244 L 253.381,224.328 C 253.381,219.596 255.015,215.765 258.255,212.823 C 261.493,209.865 266.281,207.936 272.619,206.992 L 272.619,206.007 C 260.127,204.133 253.719,198.021 253.381,187.669 L 253.381,162.981 C 253.381,159.123 252.367,156.264 250.325,154.391 C 248.297,152.517 244.523,151.504 239.016,151.335 L 239.016,132.773 C 248.212,132.773 255.423,133.505 260.648,134.956 C 265.873,136.42 269.605,138.731 271.831,141.899 C 274.056,145.068 275.168,149.673 275.168,155.729 L 275.168,181.98 L 275.168,182.811 C 275.168,187.431 276.859,190.895 280.252,193.219 C 283.632,195.528 288.984,196.683 296.307,196.683 L 296.307,216.4 C 289.435,216.4 284.181,217.527 280.576,219.793 C 276.971,222.047 275.168,225.836 275.168,231.173 Z "/>
		</g>
	</g>
</svg>