<?xml version="1.0" encoding="UTF-8" standalone="no"?>
<!-- Created with Serif DrawPlus 11, 0, 0, 18 (Mar 20, 15:09:53) (http://www.serif.com) -->
<svg version="1.1" xmlns="http://www.w3.org/2000/svg" xmlns:xlink="http://www.w3.org/1999/xlink" width="377" height="375">
	<g id="Layer_1">
		<path id="dp_path001" fill="#e44d26" fill-rule="evenodd" stroke="none" stroke-width="1.33333" d="M 0.666667,0.666667 L 295.067,0.666667 L 375.867,91.8667 L 375.867,374.267 L 0.666667,374.267 Z "/>
		<g id="dp_group001">
			<path id="dp_path002" fill="black" fill-rule="evenodd" stroke="black" stroke-width="6.66667" d="M 141.455,246.936 L 50.3053,206.719 L 50.3053,193.607 L 141.455,148.063 L 141.455,170.107 L 78.6627,199.199 L 141.455,225.003 Z "/>
			<path id="dp_path003" fill="black" fill-rule="evenodd" stroke="black" stroke-width="6.66667" d="M 237.544,225.003 L 300.336,199.199 L 237.544,170.107 L 237.544,148.063 L 328.693,193.607 L 328.693,206.719 L 237.544,246.936 Z "/>
		</g>
		<text id="dp_text001" transform="matrix(1,0,0,1,164.267,269.465)" xml:space="preserve" fill="black" stroke="black" stroke-width="13.3333" font-family="Open Sans" font-size="188" font-weight="400" x="0" y="0">  </text>
		<text id="dp_text002" transform="matrix(1,0,0,1,164.267,269.465)" xml:space="preserve" fill="black" stroke="black" stroke-width="13.3333" font-family="Open Sans" font-size="188" font-weight="400" x="0" y="0">   </text>
		<text id="dp_text003" transform="matrix(1,0,0,1,320.506,269.465)" xml:space="preserve" fill="black" stroke="black" stroke-width="13.3333" font-family="Open Sans" font-size="188" font-weight="400" x="0" y="0">   </text>
	</g>
</svg>