<?xml version="1.0" encoding="UTF-8" standalone="no"?>
<!-- Created with Serif DrawPlus 11, 0, 0, 18 (Mar 20, 15:09:53) (http://www.serif.com) -->
<svg version="1.1" xmlns="http://www.w3.org/2000/svg" xmlns:xlink="http://www.w3.org/1999/xlink" width="376.535" height="374.935">
	<g id="selection" transform="matrix(1,0,0,1,-257.563,-414.707)">
		<path id="dp_path001" fill="white" fill-rule="evenodd" stroke="none" stroke-width="1.33333" d="M 258.229,415.373 L 552.629,415.373 L 633.429,506.573 L 633.429,788.973 L 258.229,788.973 Z "/>
		<path id="dp_path002" fill="#2f3036" fill-rule="evenodd" stroke="none" stroke-width="1.33333" d="M 310.08,733.972 L 581.577,733.972 L 581.577,742.375 L 310.08,742.375 Z "/>
		<path id="dp_path003" fill="#2f3036" fill-rule="evenodd" stroke="none" stroke-width="1.33333" d="M 310.08,677.972 L 581.577,677.972 L 581.577,686.375 L 310.08,686.375 Z "/>
		<path id="dp_path004" fill="#2f3036" fill-rule="evenodd" stroke="none" stroke-width="1.33333" d="M 310.08,622.472 L 581.577,622.472 L 581.577,630.875 L 310.08,630.875 Z "/>
		<path id="dp_path005" fill="#2f3036" fill-rule="evenodd" stroke="none" stroke-width="1.33333" d="M 310.08,566.472 L 581.577,566.472 L 581.577,574.875 L 310.08,574.875 Z "/>
		<path id="dp_path006" fill="#2f3036" fill-rule="evenodd" stroke="none" stroke-width="1.33333" d="M 310.08,733.972 L 581.577,733.972 L 581.577,742.375 L 310.08,742.375 Z "/>
		<path id="dp_path007" fill="#2f3036" fill-rule="evenodd" stroke="none" stroke-width="1.33333" d="M 310.08,677.972 L 581.577,677.972 L 581.577,686.375 L 310.08,686.375 Z "/>
		<path id="dp_path008" fill="#2f3036" fill-rule="evenodd" stroke="none" stroke-width="1.33333" d="M 310.08,622.472 L 581.577,622.472 L 581.577,630.875 L 310.08,630.875 Z "/>
		<path id="dp_path009" fill="#2f3036" fill-rule="evenodd" stroke="none" stroke-width="1.33333" d="M 310.08,566.472 L 581.577,566.472 L 581.577,574.875 L 310.08,574.875 Z "/>
		<path id="dp_path010" fill="#2f3036" fill-rule="evenodd" stroke="none" stroke-width="1.33333" d="M 310.08,705.972 L 581.577,705.972 L 581.577,714.375 L 310.08,714.375 Z "/>
		<path id="dp_path011" fill="#2f3036" fill-rule="evenodd" stroke="none" stroke-width="1.33333" d="M 310.08,649.972 L 581.577,649.972 L 581.577,658.375 L 310.08,658.375 Z "/>
		<path id="dp_path012" fill="#2f3036" fill-rule="evenodd" stroke="none" stroke-width="1.33333" d="M 310.08,594.472 L 581.577,594.472 L 581.577,602.875 L 310.08,602.875 Z "/>
		<path id="dp_path013" fill="#2f3036" fill-rule="evenodd" stroke="none" stroke-width="1.33333" d="M 310.08,538.472 L 581.577,538.472 L 581.577,546.875 L 310.08,546.875 Z "/>
	</g>
</svg>