<?xml version="1.0" encoding="UTF-8" standalone="no"?>
<!-- Created with Serif DrawPlus 11, 0, 0, 18 (Mar 20, 15:09:53) (http://www.serif.com) -->
<svg version="1.1" xmlns="http://www.w3.org/2000/svg" xmlns:xlink="http://www.w3.org/1999/xlink" width="372.413" height="214.637">
	<path id="dp_path001" transform="matrix(1,0,0,1,-652.899,-423.687)" fill="#2f3036" fill-rule="evenodd" stroke="none" stroke-width="1.33333" d="M 839.105,467.672 C 804.127,467.672 775.772,496.027 775.772,531.005 C 775.772,565.984 804.127,594.339 839.105,594.339 C 874.084,594.339 902.439,565.984 902.439,531.005 C 902.439,496.027 874.084,467.672 839.105,467.672 Z M 839.105,424.353 C 918.239,424.353 987.379,467.145 1024.65,530.855 L 1024.65,531.155 C 987.38,594.863 918.24,637.656 839.105,637.656 C 759.971,637.656 690.831,594.863 653.565,531.155 L 653.565,530.855 C 690.829,467.145 759.969,424.352 839.105,424.353 Z "/>
</svg>