<?xml version="1.0" encoding="UTF-8" standalone="no"?>
<!-- Created with Serif DrawPlus 11, 0, 0, 18 (Mar 20, 15:09:53) (http://www.serif.com) -->
<svg version="1.1" xmlns="http://www.w3.org/2000/svg" xmlns:xlink="http://www.w3.org/1999/xlink" width="230.612" height="203.751">
	<path id="dp_path001" transform="matrix(1,0,0,1,-679.812,-1124.44)" fill="#2f3036" fill-rule="evenodd" stroke="none" stroke-width="1.33333" d="M 841.165,1316.45 C 803.829,1335.53 758.597,1329.61 727.425,1301.57 C 696.508,1273.76 685.769,1229.91 700.253,1191.01 L 681.592,1183.89 L 719.048,1167.91 L 736.364,1204.77 L 716.993,1197.38 C 705.149,1229.36 713.995,1265.38 739.396,1288.24 C 765.051,1311.32 802.283,1316.2 833.016,1300.5 Z M 749.069,1136.17 C 786.405,1117.09 831.637,1123.01 862.809,1151.05 C 893.725,1178.86 904.464,1222.71 889.981,1261.62 L 908.643,1268.73 L 871.187,1284.72 L 853.871,1247.86 L 873.241,1255.24 C 885.084,1223.26 876.239,1187.24 850.839,1164.38 C 825.184,1141.3 787.952,1136.42 757.219,1152.12 Z "/>
</svg>